<svg width="116" height="18" viewBox="0 0 116 18" fill="none" xmlns="http://www.w3.org/2000/svg">
<g clip-path="url(#clip0_2142_277)">
<path d="M94.5708 7.60413H88.445V10.4347H94.5708V7.60413Z" fill="black"/>
<path d="M88.4614 14.6528C87.7079 14.6571 86.9612 14.5079 86.2658 14.2143C85.5853 13.9362 84.9714 13.5142 84.4654 12.9766C83.9593 12.4665 83.5565 11.8613 83.2798 11.195C82.9773 10.4952 82.8239 9.73875 82.8297 8.97499C82.8257 8.22216 82.9791 7.47698 83.2798 6.78826C83.562 6.11841 83.9639 5.50692 84.4654 4.98447C84.9778 4.4545 85.59 4.03366 86.2658 3.74679C86.965 3.46847 87.7101 3.3272 88.4614 3.33053C89.1973 3.3196 89.9279 3.45843 90.6097 3.73875C91.2914 4.01907 91.9105 4.43515 92.43 4.96226L94.4171 2.99197C93.6451 2.21093 92.7345 1.58393 91.7329 1.14378C90.7018 0.700467 89.5929 0.471985 88.4724 0.471985C87.352 0.471985 86.243 0.700467 85.2119 1.14378C84.2025 1.57139 83.2838 2.19131 82.5058 2.96977C81.7466 3.74068 81.136 4.64788 80.7054 5.64492C80.2504 6.6943 80.0203 7.82922 80.0303 8.97499C80.0214 10.1207 80.2515 11.2553 80.7054 12.3051C81.1414 13.2991 81.7513 14.2054 82.5058 14.9802C83.2838 15.7587 84.2025 16.3786 85.2119 16.8062C86.2427 17.2511 87.3517 17.4804 88.4724 17.4804C89.5931 17.4804 90.7022 17.2511 91.7329 16.8062C92.7353 16.3701 93.6463 15.7447 94.4171 14.9636L92.43 12.9877C91.9133 13.5209 91.2955 13.9431 90.6136 14.2292C89.9317 14.5153 89.1997 14.6593 88.4614 14.6528Z" fill="black"/>
<path d="M11.4886 7.55974H3.03544V0.738647H0V17.2669H3.03544V10.1849H11.4886V17.2669H14.524V0.738647H11.4886V7.55974Z" fill="black"/>
<path d="M35.1957 2.91988C34.3913 2.14618 33.4437 1.54073 32.4073 1.13829C30.1428 0.28748 27.6513 0.28748 25.3868 1.13829C24.3464 1.5393 23.395 2.14483 22.5874 2.91988C21.794 3.67755 21.1658 4.59438 20.7431 5.61168C19.8649 7.78331 19.8649 10.2168 20.7431 12.3884C21.1672 13.4049 21.7952 14.3215 22.5874 15.0802C23.395 15.8552 24.3464 16.4608 25.3868 16.8618C26.5112 17.297 27.7069 17.5135 28.9108 17.5C30.104 17.5137 31.2889 17.2971 32.4018 16.8618C33.4356 16.4591 34.3825 15.8578 35.1903 15.0913C35.986 14.3357 36.6146 13.4183 37.0346 12.3995C37.9128 10.224 37.9128 7.78714 37.0346 5.61168C36.6134 4.59488 35.9872 3.67808 35.1957 2.91988ZM34.2022 11.3283C33.9247 12.0145 33.5163 12.6388 33.0001 13.1654C32.4828 13.6956 31.8623 14.1114 31.1778 14.3864C29.7044 14.949 28.0787 14.949 26.6054 14.3864C25.9209 14.1114 25.3003 13.6956 24.783 13.1654C24.2642 12.6346 23.8555 12.0044 23.5809 11.3117C23.0026 9.8203 23.0026 8.16311 23.5809 6.67176C23.8616 5.98289 24.2738 5.35673 24.794 4.82912C25.3129 4.30228 25.9331 3.8886 26.6164 3.61365C27.3417 3.32575 28.1152 3.1825 28.8943 3.19183C29.6752 3.18276 30.4505 3.32599 31.1778 3.61365C31.8631 3.88455 32.4841 4.29875 33.0001 4.82912C33.5152 5.35872 33.9235 5.98454 34.2022 6.67176C34.7806 8.16886 34.7806 9.8312 34.2022 11.3283Z" fill="black"/>
<path d="M46.2891 0.738647H43.2537V17.2669H54.8355V14.6694H46.2891V0.738647Z" fill="black"/>
<path d="M64.6445 0.733093L57.2892 17.278H60.4179L62.0646 13.4484H70.2433L71.89 17.278H75.0188L67.636 0.744196L64.6445 0.733093ZM63.0582 11.0286L66.1211 3.81341L69.1949 11.0286H63.0582Z" fill="black"/>
<path d="M115.347 5.62273C114.924 4.60543 114.296 3.68859 113.502 2.93092C112.698 2.15722 111.75 1.55178 110.714 1.14934C108.45 0.298527 105.958 0.298527 103.694 1.14934C102.653 1.55035 101.702 2.15587 100.894 2.93092C100.101 3.68859 99.4726 4.60543 99.0498 5.62273C98.1792 7.79586 98.1792 10.2263 99.0498 12.3994C99.474 13.4159 100.102 14.3325 100.894 15.0912C101.702 15.8663 102.653 16.4718 103.694 16.8728C104.82 17.3087 106.017 17.5252 107.223 17.5111C108.416 17.5248 109.601 17.3081 110.714 16.8728C111.748 16.4701 112.695 15.8689 113.502 15.1023C114.298 14.3467 114.927 13.4293 115.347 12.4105C116.225 10.2351 116.225 7.79819 115.347 5.62273ZM112.514 11.3394C112.233 12.0248 111.823 12.6486 111.307 13.1764C110.791 13.7054 110.172 14.121 109.49 14.3975C108.015 14.9599 106.387 14.9599 104.912 14.3975C104.228 14.1224 103.607 13.7066 103.09 13.1764C102.571 12.6457 102.162 12.0154 101.888 11.3227C101.309 9.83135 101.309 8.17416 101.888 6.68281C102.168 5.99393 102.581 5.36777 103.101 4.84016C103.62 4.31332 104.24 3.89964 104.923 3.62469C105.648 3.33678 106.422 3.19355 107.201 3.20288C107.984 3.19434 108.761 3.33752 109.49 3.62469C110.173 3.89702 110.792 4.31108 111.307 4.84016C111.822 5.37094 112.232 5.99638 112.514 6.68281C113.085 8.18132 113.085 9.84084 112.514 11.3394Z" fill="black"/>
</g>
<defs>
<clipPath id="clip0_2142_277">
<rect width="116" height="17" fill="white" transform="translate(0 0.5)"/>
</clipPath>
</defs>
</svg>
